<svg width="40" height="40" viewBox="0 0 40 40" fill="none" xmlns="http://www.w3.org/2000/svg">
<path d="M8.945 12.5H0V40H8.945V12.5Z" fill="white"/>
<path d="M33.31 12.8225C33.215 12.7925 33.125 12.76 33.025 12.7325C32.905 12.705 32.785 12.6825 32.6625 12.6625C32.1875 12.5675 31.6675 12.5 31.0575 12.5C25.8425 12.5 22.535 16.2925 21.445 17.7575V12.5H12.5V40H21.445V25C21.445 25 28.205 15.585 31.0575 22.5C31.0575 28.6725 31.0575 40 31.0575 40H40V21.4425C40 17.2875 37.1525 13.825 33.31 12.8225Z" fill="white"/>
<path d="M4.375 8.75C6.79125 8.75 8.75 6.79125 8.75 4.375C8.75 1.95875 6.79125 0 4.375 0C1.95875 0 0 1.95875 0 4.375C0 6.79125 1.95875 8.75 4.375 8.75Z" fill="white"/>
</svg>
